<svg xmlns="http://www.w3.org/2000/svg" viewBox="0 0 40 26" width="40" height="26" role="img" aria-label="Apple Pay">
  <rect width="40" height="26" rx="4" fill="#000000"/>
  <g transform="translate(7.5,6.2) scale(.62)" fill="#fff">
    <path d="M13.1 9.6c0-2.2 1.8-3.3 1.9-3.3-1-1.5-2.6-1.7-3.2-1.7-1.4-.1-2.6.8-3.3.8s-1.7-.8-2.8-.8C4.1 4.6 2.7 5.5 2 6.9.4 9.6 1.6 13.7 3.1 15.9c.7 1.1 1.6 2.3 2.7 2.2 1.1 0 1.5-.7 2.8-.7s1.7.7 2.8.7 1.9-1.1 2.6-2.1c.8-1.2 1.2-2.3 1.2-2.4-.1 0-2.3-.9-2.3-3z"/>
    <path d="M10.9 3.1C11.5 2.4 11.9 1.4 11.8.4c-.8 0-1.9.6-2.5 1.3-.6.6-1 1.6-.9 2.5.9.1 1.9-.5 2.5-1.1z"/>
  </g>
  <text x="22.5" y="17" font-size="9" fill="#fff" font-family="Arial, Helvetica, sans-serif" font-weight="600" text-anchor="middle">Pay</text>
</svg>
