<svg xmlns="http://www.w3.org/2000/svg" viewBox="0 0 64 64" width="64" height="64" role="img" aria-label="SMS">
  <defs>
    <linearGradient id="sms-bg" x1="32" y1="5" x2="32" y2="59" gradientUnits="userSpaceOnUse">
      <stop offset="0" stop-color="#5CD46B"/><stop offset="1" stop-color="#2DA047"/>
    </linearGradient>
    <clipPath id="sms-c"><circle cx="32" cy="31.5" r="27"/></clipPath>
    <filter id="sms-sh" x="-25%" y="-20%" width="150%" height="155%">
      <feDropShadow dx="0" dy="1.6" stdDeviation="1.7" flood-color="#15532a" flood-opacity=".38"/>
    </filter>
  </defs>
  <circle cx="32" cy="31.5" r="27" fill="url(#sms-bg)" filter="url(#sms-sh)"/>
  <g clip-path="url(#sms-c)"><ellipse cx="32" cy="9" rx="30" ry="17" fill="#ffffff" opacity=".2"/></g>
  <g transform="translate(10.24,10.08) scale(0.68)">
    <path fill="#fff" d="M18 19h28a4 4 0 0 1 4 4v13.5a4 4 0 0 1-4 4H31l-8 6a1.15 1.15 0 0 1-1.84-1.04L21.8 40.5H18a4 4 0 0 1-4-4V23a4 4 0 0 1 4-4z"/>
    <g fill="#37B24D"><circle cx="24.5" cy="29.7" r="2.4"/><circle cx="32" cy="29.7" r="2.4"/><circle cx="39.5" cy="29.7" r="2.4"/></g>
  </g>
</svg>
