<svg xmlns="http://www.w3.org/2000/svg" viewBox="0 0 64 64" width="64" height="64" role="img" aria-label="SMS">
  <defs>
    <linearGradient id="sms-bg" x1="32" y1="5" x2="32" y2="59" gradientUnits="userSpaceOnUse">
      <stop offset="0" stop-color="#7BE26A"/><stop offset="1" stop-color="#37B24D"/>
    </linearGradient>
    <linearGradient id="sms-gl" x1="32" y1="5" x2="32" y2="35" gradientUnits="userSpaceOnUse">
      <stop offset="0" stop-color="#ffffff" stop-opacity=".48"/><stop offset="1" stop-color="#ffffff" stop-opacity="0"/>
    </linearGradient>
    <filter id="sms-sh" x="-25%" y="-20%" width="150%" height="155%">
      <feDropShadow dx="0" dy="1.6" stdDeviation="1.7" flood-color="#15532a" flood-opacity=".38"/>
    </filter>
  </defs>
  <rect x="5" y="4" width="54" height="54" rx="15" fill="url(#sms-bg)" filter="url(#sms-sh)"/>
  <rect x="5" y="4" width="54" height="30" rx="15" fill="url(#sms-gl)"/>
  <path fill="#fff" d="M16 17h32a4 4 0 0 1 4 4v16a4 4 0 0 1-4 4H30l-8.6 6.4A1.3 1.3 0 0 1 19.3 46.4L20 41h-4a4 4 0 0 1-4-4V21a4 4 0 0 1 4-4z"/>
  <g fill="#37B24D"><circle cx="24" cy="29" r="2.5"/><circle cx="32" cy="29" r="2.5"/><circle cx="40" cy="29" r="2.5"/></g>
</svg>
