<svg xmlns="http://www.w3.org/2000/svg" viewBox="0 0 64 64" width="64" height="64" role="img" aria-label="Telegram">
  <defs>
    <linearGradient id="tg-bg" x1="32" y1="5" x2="32" y2="59" gradientUnits="userSpaceOnUse">
      <stop offset="0" stop-color="#43C3F2"/><stop offset="1" stop-color="#1C8FD6"/>
    </linearGradient>
    <clipPath id="tg-c"><circle cx="32" cy="31.5" r="27"/></clipPath>
    <filter id="tg-sh" x="-25%" y="-20%" width="150%" height="155%">
      <feDropShadow dx="0" dy="1.6" stdDeviation="1.7" flood-color="#0a3a55" flood-opacity=".38"/>
    </filter>
  </defs>
  <circle cx="32" cy="31.5" r="27" fill="url(#tg-bg)" filter="url(#tg-sh)"/>
  <g clip-path="url(#tg-c)"><ellipse cx="32" cy="9" rx="30" ry="17" fill="#ffffff" opacity=".2"/></g>
  <path fill="#fff" d="M45.2 19.3 40 43.6c-.39 1.73-1.42 2.15-2.88 1.34l-7.94-5.85-3.83 3.69c-.42.42-.78.78-1.6.78l.57-8.04 14.63-13.22c.64-.56-.14-.88-.99-.32L17.9 33.06l-7.78-2.43c-1.69-.53-1.73-1.69.36-2.51l30.43-11.73c1.41-.52 2.64.32 2.13 2.19z"/>
  <path fill="#bfe6fa" d="m24.78 35.1 13-11.74c.64-.56-.14-.88-.99-.32L17.9 33.06l.57 4.62c.55-1.32 1.75-2.15 3.57-2.45z" opacity=".6"/>
</svg>
